<svg xmlns="http://www.w3.org/2000/svg" viewBox="0 0 512 512">
  <!-- Background Circle -->
  <circle cx="256" cy="256" r="245" fill="#3498db" />
  <circle cx="256" cy="256" r="225" fill="#f1f2f6" />
  
  <!-- Scissors Icon -->
  <g transform="translate(256, 256) scale(0.65) translate(-256, -256)">
    <path d="M170 150c0-27.5-22.5-50-50-50s-50 22.5-50 50 22.5 50 50 50 50-22.5 50-50zm0 212c0-27.5-22.5-50-50-50s-50 22.5-50 50 22.5 50 50 50 50-22.5 50-50zM408 96l-95.9 95.9c17.5 41.8 5.1 90.1-32.8 111.5L192 404.3c-9.8-16.8-31.2-22.1-48-15.2-21.2 8.7-30.4 34-19.6 54.9 10.9 21.1 37.2 28.2 57.5 13.4L295.2 300c41.2-28.4 58.5-81.8 38.8-131.1L439.5 63.5C445 58 448 50 448 41.5 448 18.6 429.4 0 406.5 0c-8.5 0-16.5 3-22 8.5l-88.8 88.8c-37.6-24.6-93-13.7-124.6 30.1-13.7 19.1-19.1 41.4-18 62.1l-122 122c-8.5 8.5-9.3 22.1-1.8 30.6l104 118c9.1 10.4 24.9 10.4 34.1 0 4.7-5.3 6.3-11.3 6.3-18 0-6.2-2-12.5-6.3-18l-24.5-28L232 288.9c19.4 5.3 41.5 1.7 58.7-9.3l97.8-88.2c32.8 11.7 72.4 1.6 97.8-28.8 5.3-6.4 5.3-15.3 0-21.7-5.3-6.3-13.5-6.3-18.8 0-17.8 20.9-45.8 28.1-70.1 18.7L294.6 260.8c-3.1 2.1-10.6 3.7-13.7 0-4.2-5-1-11.8 4.2-15.8l96.3-87.5c5.7-5.1 6.7-14.6 0-20.5-6.2-5.5-16.1-4.4-20.5 2.1-18.8 28.3-51.6 36.9-80.5 26.3L162.7 296.4c-3.1 2.6-8.9 9.4-13.6 5.2-4.2-3.7-1.1-12 4.2-15.8L294.6 174c6.7-6 7.3-12.5 2.1-18.4-5.2-5.8-13.5-5.8-20 0-28.3 25.3-74.6 22.6-98.4-9.4l99.2-99.2c4.7-4.7 4.7-12.3 0-17-4.6-4.7-12.3-4.7-17 0L87 203.5c-25.2-34.3-20.5-79.6 6.3-106.8 30.4-30.4 74.8-33 108.4-7.8l120.7-120.7c11.7-11.7 30.7-11.7 42.4 0C376.1 79.5 376.1 98.5 364.4 110.2L206.5 268.1c-3.1 3.1-3.1 8.2 0 11.3 3.1 3.1 8.2 3.1 11.3 0L376.2 121c17-17 17-44.9 0-62-16.9-16.9-44.1-16.9-62 0L214.8 158.5c-16.3-8.6-35.6-11.1-54.3-7L86.4 75.9c-4.6-5.2-12.5-5.8-18-1.1-5.2 4.6-5.8 12.5-1.1 18l74.4 83.8c-5.8 8.6-10.4 11.5-13.7 22.9z" fill="#2c3e50"/>
  </g>
  
  <!-- Camera Lens -->
  <circle cx="256" cy="200" r="75" fill="#e67e22" />
  <circle cx="256" cy="200" r="60" fill="#f1f2f6" />
  <circle cx="256" cy="200" r="50" fill="#3498db" opacity="0.3" />
  <circle cx="230" cy="174" r="15" fill="#ffffff" opacity="0.7" />
  
  <!-- Bottom Rectangle (Tool Panel) -->
  <rect x="106" y="320" width="300" height="60" rx="15" ry="15" fill="#34495e" />
  
  <!-- Tool Icons -->
  <circle cx="146" cy="350" r="15" fill="#e74c3c" />
  <circle cx="196" cy="350" r="15" fill="#f1c40f" />
  <circle cx="246" cy="350" r="15" fill="#2ecc71" />
  <circle cx="296" cy="350" r="15" fill="#9b59b6" />
  <circle cx="346" cy="350" r="15" fill="#1abc9c" />
</svg>